# xmcd
#
# Track frame offsets:
#	150
#	16173
#	33181
#	51905
#	68060
#	86262
#	103291
#	117248
#	134656
#
# Disc length: 2026 seconds
#
# Revision: 1
# Processed by: cddbd v1.5.2PL0 Copyright (c) Steve Scherf et al.
# Submitted via: audiograbber 1.83.01
#
DISCID=7307e809
DTITLE=Various Artist - CDX 587
DYEAR=2014
DGENRE=Country
TTITLE0=Ashley Gearing - Boomerang
TTITLE1=Eric Church - Give Me Back My Hometown (Radio Edit)
TTITLE2=Debbie Cochran - What's Going On
TTITLE3=Clint Taylor - Boots
TTITLE4=Sherry Lynn - Girls Will Be Girls
TTITLE5=Stevie Lee Woods - Hey What Do I Know
TTITLE6=Melissa Greenwood - Roller Coaster Ride
TTITLE7=North 40 - Tell Me Somthin' Good
TTITLE8=Lexi Larsen - You Can Leave
EXTD=
EXTT0=
EXTT1=
EXTT2=
EXTT3=
EXTT4=
EXTT5=
EXTT6=
EXTT7=
EXTT8=
PLAYORDER=
